<?xml version="1.0" encoding="utf-8"?>
<!-- Generator: Adobe Illustrator 22.0.1, SVG Export Plug-In . SVG Version: 6.00 Build 0)  -->
<svg version="1.1" id="Layer_1" xmlns="http://www.w3.org/2000/svg" xmlns:xlink="http://www.w3.org/1999/xlink" x="0px" y="0px"
	 viewBox="0 0 512 512" style="enable-background:new 0 0 512 512;" xml:space="preserve">
<style type="text/css">
	.st0{fill:#35216D;}
	.st1{fill:#EDF3FC;}
	.st2{fill:#330D84;}
	.st3{fill:#FFBE1B;}
	.st4{fill:#0061F3;}
	.st5{fill:#8C7BFD;}
	.st6{fill:#FFFFFF;}
	.st7{fill:#5932AE;}
	.st8{fill:#1C46C4;}
	.st9{fill:#6857E5;}
	.st10{fill:#5D8EF9;}
	.st11{fill:#8AC9F9;}
	.st12{fill:#FFE37B;}
	.st13{fill:#FFD000;}
	.st14{fill:#2EF39E;}
	.st15{fill:#FDB813;}
</style>
<g>
	<g>
		<g>
			<path class="st1" d="M255.999,40.928c-118.778,0-215.071,96.294-215.071,215.074c0,118.776,96.292,215.068,215.071,215.068
				S471.07,374.778,471.07,256.002C471.07,137.222,374.777,40.928,255.999,40.928z"/>
		</g>
	</g>
	<g>
		<g>
			<path class="st1" d="M255.999,1C115.391,1,1,115.392,1,256.002C1,396.609,115.391,511,255.999,511S511,396.609,511,256.002
				C511,115.392,396.607,1,255.999,1z M255.999,502.831c-136.103,0-246.83-110.727-246.83-246.829
				c0-136.104,110.727-246.834,246.83-246.834c136.102,0,246.832,110.729,246.832,246.834
				C502.831,392.104,392.101,502.831,255.999,502.831z"/>
		</g>
	</g>
	<g>
		<g>
			<path class="st2" d="M134.539,276.916c-15.402-3.698-27.424-15.223-31.293-29.969l-0.66-2.521l-0.653,2.521
				c-3.866,14.746-15.894,26.271-31.301,29.969l-2.623,0.627l2.623,0.63c15.408,3.696,27.436,15.218,31.301,29.968l0.653,2.519
				l0.66-2.519c3.869-14.751,15.891-26.272,31.293-29.968l2.635-0.63L134.539,276.916z"/>
		</g>
	</g>
	<g>
		<g>
			<path class="st9" d="M252.856,100.815c-9.477-2.275-16.875-9.367-19.256-18.441l-0.406-1.551l-0.402,1.551
				c-2.379,9.074-9.78,16.166-19.261,18.441l-1.614,0.386l1.614,0.388c9.481,2.274,16.882,9.364,19.261,18.44l0.402,1.55l0.406-1.55
				c2.381-9.076,9.778-16.166,19.256-18.44l1.621-0.388L252.856,100.815z"/>
		</g>
	</g>
	<g>
		<g>
			<path class="st3" d="M404.711,180.88c-14.254-3.422-25.38-14.088-28.96-27.735l-0.611-2.333l-0.605,2.333
				c-3.577,13.647-14.709,24.313-28.968,27.735l-2.428,0.58l2.428,0.583c14.259,3.421,25.39,14.083,28.968,27.734l0.605,2.331
				l0.611-2.331c3.581-13.651,14.706-24.313,28.96-27.734l2.438-0.583L404.711,180.88z"/>
		</g>
	</g>
	<g>
		<g>
			<path class="st3" d="M427.923,240.385c-7.127-1.711-12.69-7.044-14.48-13.867l-0.305-1.166l-0.302,1.166
				c-1.789,6.823-7.355,12.156-14.484,13.867l-1.214,0.29l1.214,0.291c7.129,1.71,12.695,7.042,14.484,13.867l0.302,1.165
				l0.305-1.165c1.79-6.826,7.353-12.157,14.48-13.867l1.219-0.291L427.923,240.385z"/>
		</g>
	</g>
	<g>
		<g>
			<path class="st2" d="M133.376,352.213c-7.127-1.711-12.69-7.044-14.48-13.867l-0.305-1.166l-0.302,1.166
				c-1.789,6.823-7.354,12.156-14.484,13.867l-1.214,0.29l1.214,0.292c7.129,1.71,12.695,7.042,14.484,13.867l0.302,1.166
				l0.305-1.166c1.79-6.825,7.353-12.157,14.48-13.867l1.219-0.292L133.376,352.213z"/>
		</g>
	</g>
	<g>
		<g>
			<path class="st10" d="M260.235,133.08h-93.692c-11.53,0-20.881,9.347-20.881,20.877V358.04c0,11.533,9.351,20.88,20.881,20.88
				h116.239l3.153-30.954l40.402-73.549v-75.236L260.235,133.08z"/>
		</g>
	</g>
	<g>
		<g>
			<path class="st11" d="M260.235,133.08v45.225c0,11.53,9.348,20.876,20.876,20.876l45.227,0L260.235,133.08z"/>
		</g>
	</g>
	<g>
		<g>
			<path class="st6" d="M226,168.632h-51.995c-2.761,0-5,2.239-5,5c0,2.761,2.239,5,5,5H226c2.761,0,5-2.239,5-5
				C231,170.871,228.761,168.632,226,168.632z"/>
		</g>
	</g>
	<g>
		<g>
			<path class="st6" d="M246,201.832h-71.995c-2.761,0-5,2.239-5,5c0,2.761,2.239,5,5,5H246c2.761,0,5-2.239,5-5
				C251,204.071,248.761,201.832,246,201.832z"/>
		</g>
	</g>
	<g>
		<g>
			<path class="st6" d="M291,235.032H174.005c-2.761,0-5,2.239-5,5c0,2.761,2.239,5,5,5H291c2.761,0,5-2.239,5-5
				C296,237.271,293.761,235.032,291,235.032z"/>
		</g>
	</g>
	<g>
		<g>
			<path class="st6" d="M291,268.231H174.005c-2.761,0-5,2.239-5,5c0,2.761,2.239,5,5,5H291c2.761,0,5-2.239,5-5
				C296,270.47,293.761,268.231,291,268.231z"/>
		</g>
	</g>
	<g>
		<g>
			<path class="st6" d="M291,301.432H174.005c-2.761,0-5,2.239-5,5c0,2.761,2.239,5,5,5H291c2.761,0,5-2.239,5-5
				C296,303.671,293.761,301.432,291,301.432z"/>
		</g>
	</g>
	<g>
		<g>
			<path class="st6" d="M291,334.631H174.005c-2.761,0-5,2.239-5,5c0,2.761,2.239,5,5,5h113.763l5.255-9.566
				C292.403,334.79,291.721,334.631,291,334.631z"/>
		</g>
	</g>
	<g>
		<g>
			<g>
				<path class="st12" d="M285.936,347.966l-4.831,47.425c-0.425,4.176,4.376,6.813,7.672,4.214l37.434-29.515L285.936,347.966z"/>
			</g>
		</g>
		<g>
			<g>
				<path class="st2" d="M281.979,386.804l-0.875,8.586c-0.425,4.176,4.376,6.813,7.672,4.214l6.777-5.344L281.979,386.804z"/>
			</g>
		</g>
		<g>
			<g>
				<path class="st3" d="M381.714,246.717l-21.426-11.77c-5.205-2.859-11.742-0.958-14.601,4.247l-59.751,108.771l40.275,22.124
					l59.751-108.771C388.82,256.114,386.919,249.577,381.714,246.717z"/>
			</g>
		</g>
	</g>
</g>
</svg>
